<?xml version="1.0" encoding="utf-8"?>
<!-- Generator: Adobe Illustrator 21.1.0, SVG Export Plug-In . SVG Version: 6.00 Build 0)  -->
<svg version="1.1" id="color" xmlns="http://www.w3.org/2000/svg" xmlns:xlink="http://www.w3.org/1999/xlink" x="0px" y="0px"
	 viewBox="0 0 204.4 53" style="enable-background:new 0 0 204.4 53;" xml:space="preserve">
<style type="text/css">
	.st0{fill:#2C65AF;}
	.st1{fill:#72A1D5;}
</style>
<title>dn-logo-web-02</title>
<path class="st0" d="M11.5,27c3.2-0.1,6.1,1.5,7.7,4.3h0.1c-0.1-0.5-0.1-1.1-0.1-1.7V19.4c-0.1-0.8,0.4-1.5,1.2-1.6
	c0.1,0,0.3,0,0.4,0h1.5c0.8-0.1,1.5,0.4,1.6,1.2c0,0.1,0,0.3,0,0.4v31.3c0.1,0.8-0.4,1.5-1.2,1.6c-0.1,0-0.3,0-0.4,0H21
	c-1.1,0-1.6-0.5-1.6-1.5v-1.4c0-0.4,0-0.8,0.1-1.2h-0.1c-1.6,3-4.8,4.9-8.2,4.8c-6.7,0-11-5.3-11-13C0.2,32.1,4.9,27,11.5,27z
	 M12.1,48.9c3.7,0,7.1-2.6,7.1-8.9c0-4.4-2.3-8.8-7-8.8c-3.9,0-7.1,3.2-7.1,8.8C5.1,45.4,8,48.9,12.1,48.9L12.1,48.9z"/>
<path class="st0" d="M40.1,27c6.8,0,10.7,4.9,10.7,11.8c0,0.9-0.7,1.7-1.6,1.7l0,0H32.5c0.3,5.4,4.2,8.4,8.6,8.4
	c2.1,0,4.2-0.7,5.9-2c0.6-0.5,1.5-0.4,2,0.2c0.1,0.1,0.1,0.2,0.2,0.3l0.4,0.7c0.5,0.6,0.3,1.6-0.3,2c-0.1,0-0.1,0.1-0.2,0.1
	c-2.5,1.7-5.4,2.6-8.4,2.6c-7.8,0-13.1-5.6-13.1-13C27.7,32.1,33,27,40.1,27z M46,37.4c-0.1-4.4-2.7-6.6-6-6.6
	c-3.6,0-6.6,2.5-7.2,6.6H46z"/>
<path class="st0" d="M67.2,37.1h1.3v-0.6c0-4.1-2.3-5.4-5.4-5.4c-2,0-3.9,0.6-5.6,1.6c-0.7,0.5-1.6,0.3-2.1-0.4
	c0-0.1-0.1-0.1-0.1-0.2L55,31.3c-0.5-0.6-0.4-1.6,0.3-2c0.1-0.1,0.2-0.1,0.3-0.2c2.4-1.4,5.2-2.1,8-2.1c6.2,0,9.7,3.4,9.7,9.7v14
	c0.1,0.8-0.5,1.5-1.3,1.6c-0.1,0-0.2,0-0.4,0h-1.2c-0.8,0.1-1.5-0.5-1.6-1.3c0-0.1,0-0.2,0-0.4v-1.4c0-0.5,0.1-1,0.2-1.5h-0.1
	c0,0-2.3,5.2-8.1,5.2c-4.4,0-8.3-2.7-8.3-7.3C52.5,38,62.1,37.1,67.2,37.1z M61.9,49.2c4.2,0,6.7-4.2,6.7-7.9v-1.1h-1.3
	c-3.5,0-10,0.3-10,5C57.3,47.2,58.8,49.2,61.9,49.2z"/>
<path class="st0" d="M78.3,19.4c-0.1-0.8,0.4-1.5,1.2-1.6c0.1,0,0.3,0,0.4,0h1.5c0.8-0.1,1.5,0.5,1.6,1.3c0,0.1,0,0.2,0,0.4V45
	c0,2.8,1.2,3.2,2.2,3.3c0.7,0,1.3,0.6,1.3,1.3v0.1v1.2c0.1,0.8-0.4,1.5-1.2,1.7c-0.1,0-0.3,0-0.4,0c-2.6,0-6.6-0.7-6.6-7V19.4z"/>
<path class="st1" d="M89.7,29.2c-0.1-0.8,0.5-1.5,1.3-1.6c0.1,0,0.2,0,0.3,0h1.4c0.8-0.1,1.5,0.4,1.6,1.2c0,0.1,0,0.3,0,0.4v2.2
	c0,0.5-0.1,1-0.2,1.4h0.1c1.7-3.6,5.4-5.9,9.4-5.8c5.8,0,8.5,3.2,8.5,9.5v14.2c0.1,0.8-0.4,1.5-1.2,1.6c-0.1,0-0.3,0-0.4,0H109
	c-0.8,0.1-1.5-0.5-1.6-1.3c0-0.1,0-0.2,0-0.4v-13c0-3.5-0.7-6.2-4.7-6.2c-4.8,0-8.3,4-8.3,9.1v10.2c0.1,0.8-0.4,1.5-1.2,1.6
	c-0.1,0-0.3,0-0.4,0h-1.5c-0.8,0.1-1.5-0.5-1.6-1.3c0-0.1,0-0.2,0-0.4C89.7,50.6,89.7,29.2,89.7,29.2z"/>
<path class="st1" d="M127.9,27c6.8,0,10.7,4.9,10.7,11.8c0,0.9-0.7,1.7-1.6,1.7l0,0h-16.6c0.3,5.4,4.2,8.4,8.6,8.4
	c2.1,0,4.2-0.7,5.9-2c0.6-0.5,1.5-0.4,2,0.2c0.1,0.1,0.1,0.2,0.2,0.3l0.4,0.7c0.5,0.6,0.3,1.6-0.3,2c-0.1,0-0.1,0.1-0.2,0.1
	c-2.5,1.7-5.4,2.6-8.4,2.6c-7.8,0-13.1-5.6-13.1-13C115.6,32.1,120.9,27,127.9,27z M133.9,37.4c-0.1-4.4-2.7-6.6-6-6.6
	c-3.6,0-6.6,2.5-7.2,6.6H133.9z"/>
<path class="st1" d="M140,29.4c-0.3-1.1,0.2-1.8,1.4-1.8h1.6c0.9-0.1,1.7,0.5,1.8,1.4l4.9,16c0.3,1.3,0.6,2.6,0.6,2.6h0.1
	c0,0,0.3-1.4,0.7-2.6l5-16c0.1-0.9,0.9-1.5,1.8-1.4h1.5c0.9-0.1,1.7,0.5,1.8,1.4l5,16c0.3,1.3,0.6,2.6,0.6,2.6h0.1
	c0.2-0.9,0.4-1.8,0.6-2.6l4.9-16c0.1-0.9,0.9-1.5,1.8-1.4h1.6c1.2,0,1.7,0.7,1.4,1.8l-7,21.6c-0.2,0.8-0.9,1.4-1.8,1.4H166
	c-0.9,0.1-1.7-0.5-1.9-1.4l-4.7-14.5c-0.3-0.9-0.5-1.8-0.7-2.7h-0.1c-0.2,0.9-0.4,1.8-0.7,2.7L153.1,51c-0.2,0.9-0.9,1.4-1.8,1.4
	h-2.4c-0.9,0.1-1.7-0.5-1.8-1.4L140,29.4z"/>
<path class="st1" d="M178.8,48.1l0.5-0.7c0.6-0.8,1.3-0.9,2.2-0.3c1.8,1.3,3.9,2,6.1,2c2.4,0,4.2-1.2,4.2-3.3
	c0-4.8-12.8-3.2-12.8-11.6c0-4.7,4.1-7.1,9-7.1c2.4,0,4.8,0.6,6.9,1.9c0.7,0.3,1,1.2,0.7,1.9c0,0.1-0.1,0.2-0.2,0.3l-0.4,0.7
	c-0.5,0.9-1.2,1-2.1,0.5c-1.5-0.9-3.2-1.4-5-1.4c-2.4,0-4.2,1-4.2,3.1c0,4.9,12.8,3.2,12.8,11.6c0,4.2-3.6,7.3-8.9,7.3
	c-3,0-5.9-0.9-8.3-2.7c-0.7-0.4-1-1.3-0.6-2C178.7,48.2,178.8,48.2,178.8,48.1z"/>
<path class="st1" d="M200.9,45.1c2.1-0.1,3.8,1.6,3.8,3.6c0.1,2.1-1.6,3.8-3.6,3.8c-2.1,0.1-3.8-1.6-3.8-3.6v-0.1
	C197.2,46.8,198.9,45.1,200.9,45.1L200.9,45.1z M200.9,51.8c1.7,0.1,3.1-1.2,3.1-2.9c0.1-1.7-1.2-3.1-2.9-3.1
	c-1.7-0.1-3.1,1.2-3.1,2.9v0.1C198,50.4,199.2,51.8,200.9,51.8L200.9,51.8z M199.6,47.2c0-0.2,0.1-0.3,0.3-0.3h0.1h1.1
	c0.6,0,1.2,0.4,1.2,1V48c0,0.5-0.3,0.9-0.7,1l0,0c0.1,0.1,0.1,0.1,0.1,0.2l0.5,1c0.1,0.2,0.1,0.4-0.2,0.4h0c-0.2,0-0.3-0.1-0.4-0.2
	l-0.6-1.2h-0.6v1.2c0.1,0.1,0,0.3-0.2,0.4c-0.1,0-0.1,0-0.2,0l0,0c-0.2,0-0.3-0.1-0.3-0.2v-0.1L199.6,47.2z M201,48.7
	c0.3,0,0.6-0.2,0.6-0.6V48c0-0.3-0.2-0.6-0.5-0.6H201h-0.6v1.3L201,48.7z"/>
<path class="st1" d="M31.9,21.6l-1.6-0.1c0-1.9-0.7-3.6-1.9-5.1c-1.2-1.6-2.9-2.7-4.8-3.2l0.3-1.6c2.3,0.5,4.4,1.9,5.8,3.8
	C31.2,17.2,31.9,19.4,31.9,21.6z"/>
<path class="st1" d="M38.5,21.6l-1.6-0.1c0,0,0.3-4.1-3.2-8.7c-2-2.7-4.9-4.7-8.2-5.5l0.3-1.6c3.7,0.9,7,3,9.2,6.1
	C38.9,16.9,38.5,21.4,38.5,21.6z"/>
<path class="st1" d="M44.4,21.1L42.8,21c0-0.1,0.4-5.6-4.3-11.9c-2.7-3.7-6.7-6.4-11.2-7.5L27.6,0c4.9,1.1,9.2,4,12.2,8.1
	C44.9,14.9,44.4,20.9,44.4,21.1z"/>
</svg>
